# This file uses centimeters as units for non-parametric coordinates.

mtllib plane.mtl
g default
v -0.500000 -0.404911 0.293338
v 1.375979 -0.404911 0.293338
v -0.500000 0.404911 -0.293338
v 0.500000 0.404911 -0.293338
vt 0.000000 0.000000
vt 1.000000 0.000000
vt 0.000000 1.000000
vt 1.000000 1.000000
vn 0.000000 0.586676 0.809822
vn 0.000000 0.586676 0.809822
vn 0.000000 0.586676 0.809822
vn 0.000000 0.586676 0.809822
s 1
g pPlane1
usemtl initialShadingGroup
f 1/1/1 2/2/2 3/3/3
f 3/3/3 2/2/2 4/4/4
